<svg height="512" viewBox="120 120 275 275" width="512" xmlns="http://www.w3.org/2000/svg"><path d="M 126.3 153.6 L 252 209.2 C 255.2 210.7 259.2 210.5 264.2 208.2 L 388 153.5 C 394.6 151.1 390.9 143.7 385.7 144.5 L 129.1 143.4 C 121.9 143.7 119.9 150.9 126.3 153.6 Z M 116.2 182.1 L 234.6 366.1 C 238.3 372.1 247.7 368.7 247.4 363.3 L 247.2 237.1 C 247.1 230 245.3 228.4 240.8 226.5 L 122.4 173.8 C 118.1 171.4 112.3 175.4 116.2 182.1 Z M 267.5 234.8 L 267.8 361.8 C 267.9 370.3 276.4 371.9 281.3 364.7 L 384.2 205.3 L 386.4 201.9 L 388.3 199 L 388.3 198.9 L 399.1 182.3 C 402.4 176.8 397.2 170.5 389.4 174.2 L 272 227.1 C 271.8 227.2 271.6 227.3 271.4 227.4 C 269.9 228.3 268.9 229.2 268.4 230.3 C 267.7 231.5 267.5 233 267.5 234.8 Z" fill="#fff" fill-rule="evenodd"/></svg>